<?xml version="1.0" encoding="utf-8"?>
<!-- Generator: Adobe Illustrator 24.1.1, SVG Export Plug-In . SVG Version: 6.00 Build 0)  -->
<svg version="1.1" id="Capa_1" xmlns="http://www.w3.org/2000/svg" xmlns:xlink="http://www.w3.org/1999/xlink" x="0px" y="0px"
	 viewBox="0 0 810.9 74.5" enable-background="new 0 0 810.9 74.5" xml:space="preserve">
<rect fill="#FFFFFF" width="810.9" height="74.5"/>
<rect x="41.2" y="27.9" fill="none" width="324.7" height="31.3"/>
<text transform="matrix(1 0 0 1 42.092 37.1227)"><tspan x="0" y="0" fill="#5C5D5E" font-family="'AncizarSans-BoldItalic'" font-size="13px">Dirección de Bienestar</tspan><tspan x="0" y="15" fill="#5C5D5E" font-family="'AncizarSans-LightItalic'" font-size="13px">Vicerrectoría de Sede Bogotá</tspan></text>
<g>
	<path fill="#5C5D5E" d="M743.2,27.4c0.3,0,0.6,0,0.9,0c1,0,1.9-0.6,1.9-2.2c0-1.5-1-2.1-2.2-2.1h-0.6V27.4z M744.2,22.5
		c1.7,0,2.9,1,2.9,2.7c0,1.9-1.4,3-3.3,3c-0.5,0-1.1-0.1-1.5-0.1v-5.6H744.2z M737.6,23.4l-0.9,2.5h1.8L737.6,23.4z M738.7,26.6
		h-2.3l-0.6,1.6h-0.9l2.2-5.7h1.1l2.1,5.7h-1.1L738.7,26.6z M729.8,27.4c0.3,0,0.6,0,0.9,0c1,0,1.9-0.6,1.9-2.2c0-1.5-1-2.1-2.2-2.1
		h-0.6V27.4z M730.8,22.5c1.7,0,2.9,1,2.9,2.7c0,1.9-1.4,3-3.3,3c-0.5,0-1.1-0.1-1.5-0.1v-5.6H730.8z M726.3,28.2h-1v-5.7h1V28.2z
		 M719.2,24c0-0.9,0.9-1.6,2.1-1.6c0.7,0,1.3,0.1,1.7,0.2l-0.2,0.8c-0.5-0.2-1.1-0.3-1.7-0.3c-0.6,0-0.9,0.2-0.9,0.7
		c0,0.5,0.3,0.7,1.3,1.1c1.4,0.5,1.7,1,1.7,1.7c0,1-0.9,1.7-2.4,1.7c-0.6,0-1.2-0.1-1.7-0.2l0.2-0.9c0.6,0.2,1.1,0.4,1.8,0.4
		c0.7,0,1.1-0.3,1.1-0.7c0-0.5-0.3-0.8-1.3-1.2C719.6,25.2,719.2,24.8,719.2,24 M715.7,24.2c0-0.7-0.4-1.1-1.2-1.1
		c-0.2,0-0.4,0-0.6,0v1.9c0.2,0,0.5,0,0.8,0C715.2,25.2,715.7,24.9,715.7,24.2 M713.9,25.8v2.3h-1v-5.7h1.9c1.2,0,2,0.5,2,1.5
		c0,0.7-0.4,1.2-1,1.5l1.5,2.6h-1.1l-1.2-2.4c-0.2,0-0.3,0-0.5,0C714.3,25.8,714.1,25.8,713.9,25.8 M707.1,22.5h3.6l-0.1,0.8
		c-0.8,0-1.6,0-2.4,0v1.7h2.3l-0.1,0.7l-2.2,0v1.9l2.7,0l-0.1,0.8h-3.6V22.5z M701.8,28.2l-2.2-5.7h1.1l1.7,4.6l1.7-4.6h1l-2.3,5.7
		H701.8z M697.7,28.2h-1v-5.7h1V28.2z M690.3,23.9v4.3h-0.9v-5.7h1.1l2.8,4.2v-4.2h0.9v5.7h-1L690.3,23.9z M682,22.5h1V26
		c0,1.1,0.7,1.5,1.5,1.5c0.8,0,1.3-0.4,1.3-1.3v-3.7h1V26c0,1.4-0.9,2.3-2.5,2.3c-1.4,0-2.3-0.7-2.3-2.1V22.5z"/>
	<path fill="#5C5D5E" d="M763.1,33.6h1.9v9.3l4.7-0.1l-0.2,1.5h-6.4V33.6z M755,35.3l-1.7,4.7h3.4L755,35.3z M757.1,41.4h-4.3
		l-1.1,2.9h-1.8l4.2-10.7h2.1l3.9,10.7h-2L757.1,41.4z M739.6,36.2v8.1h-1.8V33.6h2l5.4,8v-8h1.8v10.7h-1.8L739.6,36.2z M728.6,34.8
		c-1.7,0-3,1.1-3,3.9c0,3.2,1.5,4.5,3.7,4.5c1.7,0,3.1-1.1,3.1-3.9C732.3,36,730.8,34.8,728.6,34.8 M728.5,44.5
		c-2.9,0-4.9-2-4.9-5.4c0-3.7,2.4-5.8,5.8-5.8c2.9,0,4.9,2,4.9,5.4C734.3,42.4,731.9,44.5,728.5,44.5 M720.1,44.3h-1.9V33.6h1.9
		V44.3z M715,43.8c-0.8,0.4-2.2,0.8-3.4,0.8c-3.1,0-5.3-1.9-5.3-5.5c0-3.4,2.2-5.7,5.7-5.7c1.3,0,2.5,0.2,3,0.5l-0.5,1.5
		c-0.7-0.2-1.8-0.5-3-0.5c-1.7,0-3.3,1-3.3,4c0,3.2,2,4.3,3.9,4.3c1,0,2-0.3,2.5-0.6L715,43.8z M699.1,35.3l-1.7,4.7h3.4L699.1,35.3
		z M701.3,41.4h-4.3l-1.1,2.9h-1.8l4.2-10.7h2.1l3.9,10.7h-2L701.3,41.4z M683.7,36.2v8.1H682V33.6h2l5.4,8v-8h1.8v10.7h-1.8
		L683.7,36.2z"/>
	<path fill="#5C5D5E" d="M689,49.8h3.6l-0.1,0.8c-0.8,0-1.6,0-2.4,0v1.7h2.3l-0.1,0.7l-2.2,0v1.9l2.7,0l-0.1,0.8H689V49.8z
		 M683.1,54.7c0.3,0,0.6,0,0.9,0c1,0,1.9-0.6,1.9-2.2c0-1.5-1-2.1-2.2-2.1h-0.6V54.7z M684,49.8c1.7,0,2.9,1,2.9,2.7
		c0,1.9-1.4,3-3.3,3c-0.5,0-1.1-0.1-1.5-0.1v-5.6H684z"/>
	<path fill="#5C5D5E" d="M744.4,50.7l-0.9,2.5h1.8L744.4,50.7z M745.6,53.9h-2.3l-0.6,1.6h-0.9l2.2-5.7h1.1l2.1,5.7h-1.1L745.6,53.9
		z M739.9,55.5h-1v-5.7h1V55.5z M735.8,53.9c0-0.6-0.5-1.1-1.4-1.1c-0.2,0-0.5,0-0.7,0v1.9c0.3,0,0.7,0,1.1,0
		C735.3,54.8,735.8,54.5,735.8,53.9 M735.4,51.4c0-0.6-0.3-1-1.3-1c-0.1,0-0.3,0-0.5,0v1.8c0.2,0,0.4,0,0.6,0
		C735.1,52.3,735.4,51.9,735.4,51.4 M732.6,49.8h1.8c1.2,0,1.9,0.5,1.9,1.3c0,0.4-0.2,1-0.9,1.3c0.8,0.1,1.3,0.6,1.3,1.3
		c0,1-0.9,1.7-2.5,1.7h-1.7V49.8z M724.8,51.1l-0.4,4.4h-1l0.6-5.7h1.2l1.7,4.4l1.7-4.4h1.2l0.6,5.7h-1L729,51l-1.7,4.4h-0.9
		L724.8,51.1z M718.7,50.4c-0.9,0-1.6,0.6-1.6,2c0,1.7,0.8,2.4,1.9,2.4c0.9,0,1.6-0.6,1.6-2.1C720.6,51.1,719.8,50.4,718.7,50.4
		 M718.6,55.6c-1.5,0-2.6-1-2.6-2.8c0-1.9,1.3-3.1,3.1-3.1c1.5,0,2.6,1,2.6,2.8C721.7,54.4,720.4,55.6,718.6,55.6 M711.1,49.8h1v4.9
		l2.5,0l-0.1,0.8h-3.4V49.8z M706,50.4c-0.9,0-1.6,0.6-1.6,2c0,1.7,0.8,2.4,1.9,2.4c0.9,0,1.6-0.6,1.6-2.1
		C707.9,51.1,707.1,50.4,706,50.4 M705.9,55.6c-1.5,0-2.6-1-2.6-2.8c0-1.9,1.3-3.1,3.1-3.1c1.5,0,2.6,1,2.6,2.8
		C709,54.4,707.7,55.6,705.9,55.6 M701.8,55.2c-0.4,0.2-1.2,0.4-1.8,0.4c-1.6,0-2.8-1-2.8-2.9c0-1.8,1.2-3,3-3
		c0.7,0,1.3,0.1,1.6,0.2l-0.2,0.8c-0.4-0.1-1-0.3-1.6-0.3c-0.9,0-1.7,0.5-1.7,2.1c0,1.7,1.1,2.3,2.1,2.3c0.5,0,1.1-0.2,1.3-0.3
		L701.8,55.2z"/>
</g>
<g>
	<path fill="#9AB320" d="M634.4,36c0,2.8-1.7,4.3-3.6,4.3c-1.7,0-3.1-1.3-3.1-3.1c0-1.5,0.9-2.6,2.1-2.6c0.7,0,1.1,0.4,1.1,1
		c0,0.4-0.3,0.8-0.7,0.8c-0.2,0-0.3-0.1-0.4-0.1c0.2,0.5,0.8,0.5,1.1,0.5c1.3,0,2.7-0.9,3.4-2.4C634.3,34.8,634.4,35.4,634.4,36z
		 M627.8,23.5c0-1.1,0.9-1.7,1.6-1.7c0.6,0,1,0.4,1,0.8c0.3-0.3,0.6-0.6,1-0.7c-1.2-0.7-2-2-1.7-3.4c0.1-0.1,0.5-0.2,1.1-0.2
		s1.5,0.2,2,0.7c0-1.7,0.8-2.1,0.8-3.4c0-0.3-0.1-0.6-0.1-0.9c1.4,0,3.1,1.5,3.1,4.3c0,1.4-0.5,2.9-1.4,3.9c-1.7,0-3.3,2.5-5.4,2.5
		C628.7,25.3,627.8,24.5,627.8,23.5z M629.2,35.8c0-0.4,0.3-0.8,0.7-0.8c0.2,0,0.3,0.1,0.4,0.1c-0.1-0.2-0.4-0.2-0.5-0.2
		c-0.9,0-1.6,0.9-1.6,2.2c0,1.5,1.1,2.7,2.7,2.7c2,0,3-1.5,3.2-3.4c-0.5,1.2-1.6,2.3-3.2,2.3c-1,0-1.7-0.7-1.9-1.5
		c0.4,0.8,1,1.1,1.9,1.1c1.3,0,2.5-1.1,2.9-2.4c-0.8,0.8-1.6,1.3-2.8,1.3C629.8,37.2,629.2,36.6,629.2,35.8z M634.1,22.7
		c-0.3,0-1.2-0.1-2,0.4c-1.2,0.8-2.2,1.5-3,0.6c0.8,0.6,1.6-0.1,2.8-0.9c0.7-0.4,1.6-0.4,2.1-0.4c-0.9-0.5-2-1.2-2.5-1.9
		c0.8,0.5,1.7,1.1,2.7,1.6c-0.6-0.9-1.8-2-3.2-2.9c1.3,0.4,2.7,1.6,3.5,2.7c-0.3-1.2-0.5-2.6-0.4-3.8c0.2,1.3,0.5,2.6,0.8,3.7
		c0.4-2.3,0.1-4.2-0.2-5.6c0.8,1.3,1,3.2,0.7,5.7c0.4-0.5,0.8-1.8,0.8-3c0-2-0.8-3.3-2-3.8c-0.1,0-0.2-0.1-0.3-0.1
		c0.1,0.2,0.1,0.4,0.1,0.6c0,1-0.8,1.7-0.8,3.2c0,0.4,0,0.8,0.1,1.1c-0.9-1.2-1.9-1.5-2.6-1.5c-0.3,0-0.5,0-0.7,0.1
		c-0.1,0.9,0.3,2.4,2.3,3.2c-1.7,0.3-1.7,1.4-2.6,1.4c-0.3,0-0.6-0.2-0.6-0.6c0-0.3,0.2-0.5,0.6-0.5c-0.2-0.1-0.3-0.1-0.4-0.1
		c-0.8,0-1.2,0.7-1.2,1.4c0,0.8,0.7,1.4,1.6,1.4C631.3,24.9,632.7,23.4,634.1,22.7z M634.5,42.4c0,2.1-0.8,3.3-1.8,4.4
		c-0.7,0.8-1.5,1.7-2.1,3.3c-0.9-0.5-1.6-1.8-1.6-3.5c0-2.2,0.9-3.7,1.9-4.6c1.1-1.1,2.4-1.5,3-2.5
		C634.3,40.1,634.5,41.5,634.5,42.4z M633.4,41.2c-1.5,1.6-2.6,3.6-3.1,6.5c0.1-3.2,1.3-5.2,2.8-6.8c-2.5,1.3-3.6,3.4-3.6,5.7
		c0,1.4,0.5,2.3,0.9,2.8c0.5-1.1,1.3-2.2,2-2.9c0.8-1,1.6-2,1.6-4.1c0-0.4,0-0.5-0.1-1.1c-0.5,2.1-1.5,4-2.7,5.3
		C632.1,44.9,633,43.2,633.4,41.2z M633.2,24.7c0,1.3,1.8,2.4,1.8,5.2c0,2.5-1.5,4.8-3.4,5.8c0.1-0.3,0.2-0.6,0.2-0.9
		c0-1.9-1.1-3.8-1.1-5.8c0-1.9,0.9-3.8,2.6-4.6C633.2,24.5,633.2,24.6,633.2,24.7z M638.6,51.6c-0.3,0.8-1.3,1.2-2.2,1.2
		c-0.9,0-1.9-0.5-2.2-1.2c-0.2,0.9-0.8,1.9-0.8,2.4c0,0.2,0,0.3,0.1,0.4c0.1-0.2,0.3-0.5,0.7-0.5c0.4,0,0.8,0.3,0.8,0.8
		c0,0.6-0.5,1.1-1.3,1.1c-1.4,0-2.7-1.2-2.7-3.7c0-2.2,1.1-4.1,4.3-6.3C636.1,48.1,636.1,50.9,638.6,51.6z M633.2,29.3
		c-0.1-1.4-0.3-2.6-0.5-3.6c-0.2,0.8-0.3,2-0.3,2.6c0,1.3,0.2,2.7,0.4,4.8c-0.5-1.6-0.9-3.5-0.9-4.8c0-0.9,0.1-2.2,0.3-2.7
		c-0.8,0.9-1.1,2.1-1.1,3.4c0,2,1.1,3.8,1.1,5.9c1.6-1.4,2.3-3.1,2.3-5c0-1.4-0.5-2.5-1.5-4.1c0.2,0.8,0.5,2.7,0.5,3.6
		c0,0.8-0.1,1.9-0.2,2.5C633.4,30.9,633.3,30.1,633.2,29.3z M634.7,47.3c-1.3,1.7-2,4.1-2.3,5.8c-0.2-2,0.5-4.1,1.8-6
		c-1.7,1.3-2.7,3.2-2.7,4.9c0,2.7,1.9,3.8,2.9,3.1c-0.7,0.2-1.3-0.3-1.3-1.1c0-1.1,1.1-2,1.1-5c-0.1,2.5,1,3.3,2.2,3.3
		c0.6,0,1.2-0.3,1.4-0.5c-1.4-0.5-2.2-2-2.6-4.5c-0.4,1.6,0.3,3.7,1.1,4.4C635.2,51.3,634.5,49.2,634.7,47.3z M641.8,63.2
		c-2.6,1.1-4.4,1.9-6.1,1.9c-1.9,0-2.9-0.9-2.9-2.2v-2.6c0-0.9,0.6-1.4,1.7-1.4c0.4,0,0.8,0.1,1.1,0.2c0.5-0.6,1.2-1,2-1
		c0.9,0,1.5,0.4,1.5,1.2c0,0.4-0.2,0.8-0.6,1c0.9-0.4,1.5-0.7,2.5-1.1c2.6-1.2,7-2.8,10.1-2.8c3.1,0,7.4,1.6,10.1,2.8
		c1,0.4,1.6,0.7,2.5,1.1c-0.4-0.2-0.6-0.6-0.6-1c0-0.8,0.6-1.2,1.5-1.2c0.8,0,1.5,0.4,2,1c0.3-0.1,0.7-0.2,1.1-0.2
		c1.1,0,1.7,0.6,1.7,1.4v2.6c0,1.4-1,2.2-2.9,2.2c-1.7,0-3.5-0.8-6.1-1.9c-3.3-1.5-5.9-2.6-9.2-2.6
		C647.8,60.6,645.1,61.7,641.8,63.2z M641.2,59.6c-2.3,1-4.1,1.8-5.8,1.8c-1.3,0-1.8-0.4-2.1-0.7v2.2c0,1.1,0.8,1.8,2.5,1.8
		c1.6,0,3.3-0.7,5.9-1.9c3.5-1.6,6.1-2.6,9.4-2.6c3.3,0,5.9,1.1,9.4,2.6c2.6,1.1,4.4,1.9,5.9,1.9c1.6,0,2.5-0.7,2.5-1.8v-2.2
		c-0.3,0.3-0.8,0.7-2.1,0.7c-1.7,0-3.5-0.8-5.8-1.8c-2.8-1.3-7.1-2.8-9.9-2.8C648.2,56.8,643.9,58.3,641.2,59.6z M633.4,59.9
		c0,0.7,1,1.1,2,1.1c0.9,0,2.1-0.3,3-0.7c-0.7,0.2-1.5-0.1-2.2-0.5c-0.6-0.4-1.2-0.6-1.7-0.6C633.8,59.2,633.4,59.6,633.4,59.9z
		 M666.3,30.1c0,2.3,0.7,3.7,0.7,6.1c-1.5,0-1.9,0.4-1.9,1.3c0,0.9,0.6,1.4,2,1.4c-0.2,8.3-2.6,11.5-5.9,13.4
		c-2.9,1.6-6.5,2.2-10.1,4.1c-3.6-1.9-7.2-2.5-10.1-4.1c-3.3-1.9-5.7-5.2-5.9-13.4c1.4,0,2-0.5,2-1.4c0-0.9-0.4-1.3-1.9-1.3
		c0-2.3,0.7-3.8,0.7-6.1c0-1.3-0.4-3.2-1.8-5.1l0.6-1.1c0.7,0.2,1.3,0.1,1.8-0.4c0.4-0.4,0.5-1,0.4-1.7l1.2-0.7
		c2,1.9,4.2,2.9,6.5,2.9c1.1,0,2.8-0.2,4.6-1.2l2,2.8l2-2.8c1.7,1,3.4,1.2,4.6,1.2c2.3,0,4.5-1.1,6.5-2.9l1.2,0.7
		c-0.2,0.7,0,1.3,0.4,1.7c0.4,0.4,1.1,0.6,1.8,0.4l0.6,1.1C666.7,26.9,666.3,28.8,666.3,30.1z M634.2,62l0.3,0.1v1.6
		c-0.2-0.1-0.2-0.1-0.3-0.1V62z M637.5,37.3h9.1c0.1-0.4,0.1-0.8,0.1-1.2c0-0.5-0.1-1.1-0.3-1.6l0.7-0.8c0.2,0,0.5,0.1,0.7,0.1
		c1.1,0,2.2-0.3,3-0.9v-6.8l-1.9-2.6c-1.4,0.7-3,1-4.5,1c-2.5,0-4.6-1.1-6.5-2.9l-0.7,0.4c0.1,0.7-0.1,1.3-0.5,1.7
		c-0.5,0.5-1.1,0.7-1.8,0.5l-0.3,0.7c1.3,1.8,1.7,3.7,1.7,5.1c0,1.7-0.7,4.3-0.7,5.7C636.8,35.8,637.4,36.4,637.5,37.3z M635.6,63.9
		l-0.3,0l-0.2-0.7l-0.1-0.5h-0.1l0.1,0.7v0.5l-0.3-0.1v-1.6l0.3,0l0.2,0.7l0.1,0.5h0.1l-0.1-0.7v-0.5h0.3V63.9z M639.1,53
		c2.2,0,4.3,1.4,7.8,2.5c-1.6,1.3-3.2,2-4.8,2c-2.7,0-4.5-2-5.5-1.7c0.3,0.1,0.5,0.3,0.5,0.6c0,0.4-0.4,0.7-0.8,0.7
		c-0.5,0-1-0.4-1-1.1C635.2,54.5,636.9,53,639.1,53z M646.4,38.6c0-0.4,0.1-0.7,0.1-0.9h-9c-0.1,0.8-0.6,1.4-1.9,1.5
		c0.2,7.5,2.7,11,5.7,12.7c2.8,1.6,6.6,2.3,9.5,3.7V43.5C647.1,42.2,646.4,40.7,646.4,38.6z M638.9,54.4c1.9,0,4.3,1.1,6.5,1.1
		c-1.9-0.6-4.4-2-6.3-2c-1.4,0-3.4,0.8-3.4,2.6c0,0.1,0,0.2,0.1,0.3c0.1-0.7,0.5-0.9,1.2-0.9c1.2,0,2.9,1.7,5.2,1.7
		c0.9,0,1.9-0.2,2.9-0.7c-1.9,0.1-3.9,0.2-6.1-1c1,0.4,2.7,0.7,3.8,0.7c0.3,0,1.9,0,2.3-0.1c-3.3-0.2-5.3-1.6-7.7-1.3
		C637.6,54.5,638.3,54.4,638.9,54.4z M635.9,62.4l-0.3,0v-0.3c0.2,0,0.7-0.1,0.9-0.1v0.3c0,0-0.2,0-0.3,0v1.4l-0.3,0V62.4z
		 M637.6,58.4c-0.6,0-1.3,0.4-1.6,0.8c0.6,0.3,1.3,0.8,2,0.8c0.4,0,0.7-0.3,0.7-0.7C638.6,58.8,638.2,58.4,637.6,58.4z M636.7,62
		c0.3-0.1,0.5-0.1,0.7-0.2v0.3l-0.4,0.1v0.5l0.3-0.1v0.3l-0.3,0.1v0.6c0.1,0,0.3-0.1,0.4-0.1v0.3c-0.2,0.1-0.5,0.1-0.7,0.2V62z
		 M642.1,21c0,0.7-0.4,1.3-0.8,1.6c-0.1-0.7-1.3-1.6-2.7-1.9c-1-0.8-1.5-2.2-1.5-3.4c0-2.3,1.7-3.5,2.5-5.3
		c-0.3,0.2-0.6,0.2-0.9,0.2c-0.9,0-1.6-0.6-1.6-1.6c0-1.1,0.9-2,2.3-2c1.6,0,3.4,1.4,3.4,4.7c0,1.7-0.5,4.1-2.1,5.9
		C641.6,19.6,642.1,20.3,642.1,21z M638.3,19.8c-0.2-3.8,1.6-4.5,2.3-7c-0.4,2.6-2,3.3-1.8,6.9c2.8-4.6,2.8-7.1,2.5-8.7
		c0.7,1.6,0.4,4.4-2.1,9c0.9-0.2,1.6,0.1,1.9,0.8c-0.5-0.4-1.2-0.5-1.8-0.2c1.1,0.2,1.7,0.7,2.1,1.4c0.2-0.2,0.3-0.5,0.3-1
		c0-0.7-0.5-1.3-1.5-1.5c1.6-2,2.2-4.1,2.2-6.1c0-3.1-1.6-4.4-3-4.4c-1.1,0-1.9,0.7-1.9,1.7c0,0.7,0.5,1.2,1.1,1.2
		c0.4,0,0.8-0.1,1-0.3c-0.6,0.1-0.9-0.3-0.9-0.7c0-0.3,0.2-0.7,0.7-0.7c0.4,0,0.7,0.3,0.7,0.8c0,2-2.7,3.6-2.7,6.2
		C637.6,18.1,637.8,19.1,638.3,19.8z M637.6,63.6v-1.7l0.2-0.1c0.4-0.1,0.6,0.1,0.6,0.4c0,0.2-0.1,0.4-0.3,0.5l0.5,0.6l-0.3,0.1
		L638,63l-0.1-0.2l-0.1,0v0.7L637.6,63.6z M638.1,62.2c0-0.2-0.1-0.3-0.3-0.2v0.5C638,62.5,638.1,62.3,638.1,62.2z M643,28.2
		c-0.3,0-0.6-0.2-0.7-0.5c-0.6,0-1.2,0.1-1.6,0.2l1.4,4.4h0.4c0,0.5-0.7,1-2.1,1c-1.4,0-2-0.5-2-1h0.3l1.3-4.3l-0.2,0.1l-0.2-0.6
		c0.9-0.3,1.7-0.4,2.6-0.5c0.1-0.3,0.4-0.4,0.7-0.4c0.3,0,0.5,0.2,0.6,0.4c0.9,0.1,1.8,0.2,2.6,0.5l-0.2,0.6l-0.2-0.1l1.3,4.3h0.3
		c0,0.5-0.6,1-2,1c-1.4,0-2.1-0.5-2.1-1h0.4l1.4-4.4c-0.4-0.1-1-0.2-1.6-0.2C643.6,28,643.3,28.2,643,28.2z M638.8,62.2
		c0-0.1,0.1-0.2,0.2-0.2c0.1,0,0.2,0.1,0.2,0.2c0,0.1-0.1,0.2-0.2,0.2C638.9,62.4,638.8,62.3,638.8,62.2z M640.3,32.4v-3.9l-1.1,3.9
		H640.3z M639.6,62.8l0.3-1.9l0.5-0.2l0.3,1.7l-0.3,0.1l-0.1-0.4l-0.3,0.1l-0.1,0.4L639.6,62.8z M646.3,47.5
		c-0.2,0.1-0.4,0.2-0.8,0.2c-0.8,0-1.4-0.5-1.4-1.6c0-1,0-1.3,0.1-3.2h-1.7c0,1,0,1.9-0.1,2.8c-0.1,0.9-0.5,1.5-1.3,2.2l-0.6-0.7
		c0.5-0.4,0.9-0.7,1.1-1.6c0.1-0.9,0.1-1.7,0.1-2.7c-0.9,0-1.2,0.4-1.2,1.3l-0.8-0.2c0.2-1.4,0.9-1.8,2.2-1.8h4.4v0.8H645
		c-0.1,2-0.1,2.2-0.1,3c0,0.8,0.4,1,0.8,1c0.3,0,0.4-0.1,0.6-0.1V47.5z M640.3,61.9l-0.1-0.4l-0.1-0.4l-0.1,0L640,62L640.3,61.9z
		 M640.6,28.5v3.9h1.1L640.6,28.5z M641,60.4v1.3c0,0.1,0.1,0.2,0.1,0.2c0.1,0,0.2-0.1,0.2-0.3v-1.3l0.3-0.1v1.3
		c0,0.5-0.3,0.8-0.6,0.8c-0.2,0-0.3-0.2-0.3-0.4v-1.3L641,60.4z M642,60l0.3-0.1v1.6l0.3-0.2v0.3l-0.6,0.2V60z M644,18.4
		c0,0.5-0.4,0.9-1,0.9c-0.5,0-0.8-0.3-0.9-0.9c0.3,0.2,0.9,0.1,1,0.5c0.1-0.4,0.6-0.4,0.8-0.8C644,18.2,644,18.3,644,18.4z
		 M644.4,19.3c0,0.6-0.5,0.9-1.3,0.9c-0.5,0-0.9-0.2-0.9-0.9c0.3,0.3,1.1,0.1,1.2,0.6c0-0.5,0.8-0.6,0.9-0.9
		C644.4,19.1,644.4,19.2,644.4,19.3z M643.1,18.4c-0.4,0-0.8-0.3-0.8-0.7c0-0.1,0-0.2,0.1-0.3c0.2,0.3,0.7,0.2,0.8,0.7
		c-0.1-0.5,0.6-0.7,0.7-0.8C643.9,17.9,643.6,18.4,643.1,18.4z M644.9,20.2c0,0.7-0.8,1.1-1.4,1.1c-0.5,0-0.8-0.3-0.9-0.8
		c0.1,0.1,0.3,0.1,0.8,0.1c0.2,0,0.5,0,0.6,0.3v-0.2c0-0.5,0.8-0.7,0.8-1C644.8,19.8,644.9,20,644.9,20.2z M648.5,20.9
		c0.7,0,0.9,0.4,1,1.3c-0.8,0-3.2,1.3-4.9,1.3c-1.3,0-2-0.4-2.1-2.1c0.5,0.4,1.2,0.5,1.9,0.5C646,21.8,647.7,20.9,648.5,20.9z
		 M643.1,17.5c-0.2-0.1-0.4-0.3-0.4-0.6c0-0.3,0.2-0.7,0.5-1c0,0.4,0.2,0.7,0.2,1C643.4,17.2,643.2,17.4,643.1,17.5z M642.7,61.6
		l0.2-1.9l0.4-0.2l0.4,1.6l-0.3,0.1l-0.1-0.3L643,61l0,0.4L642.7,61.6z M643.1,60.7l0.3-0.1l-0.1-0.4l-0.1-0.4l-0.1,0v0.4
		L643.1,60.7z M643.7,12.3c0.3,0,0.6-0.2,0.8-0.9c-0.1,0.4-0.1,0.9-0.1,1.3c0,1.1,0.1,2,0.2,2.4c0.1,0.2,0.1,0.4,0.1,0.5
		c0,0.6-0.2,0.9-0.5,1c-0.3-1.1-0.5-2.5-0.5-3.5C643.6,12.8,643.6,12.5,643.7,12.3z M643.7,22.1v0.8c0.1,0.1,0.3,0.1,0.5,0.1v-0.2
		H644v-0.7L643.7,22.1z M655.1,6.9c1.4,0,3.1,1.3,3.3,4.9c-0.5,0-0.7-0.4-0.7-1c-0.3-2.3-1.5-3.4-2.4-3.4c-1.7,0-0.3,2.7-2.1,3.1
		c0,0.4-0.1,1-0.3,1c-0.3,0-0.4-0.5-0.5-0.9c0,0.6-0.2,1.1-0.4,1.1c-0.2,0-0.3-0.5-0.4-0.9c0,0.5-0.3,1.1-0.5,1.1
		c-0.2,0-0.5-0.5-0.5-1.1c-0.1,0.4-0.3,0.9-0.4,0.9c-0.2,0-0.4-0.5-0.4-1.1c-0.1,0.4-0.2,0.9-0.5,0.9c-0.2,0-0.3-0.5-0.3-1
		c-1.7-0.4-0.4-3.1-2.1-3.1c-0.9,0-2.1,1.1-2.4,3.4c-0.1,0.6-0.2,1-0.7,1c0.2-3.6,1.9-4.9,3.3-4.9c2,0,1,2.5,1.9,2.5
		c0.4,0,0.7-0.4,1-1c-0.1,0.1-0.1,0.2-0.1,0.3c0,0.4,0.4,0.7,1.1,0.7c0.8,0,1.2-0.3,1.2-0.7c0-0.1,0-0.2-0.1-0.3c0.3,0.5,0.6,1,1,1
		C654.1,9.4,653.1,6.9,655.1,6.9z M643.8,60.7c0.2,0.1,0.4,0,0.4-0.2c0-0.3-0.5-0.4-0.5-0.9c0-0.3,0.3-0.5,0.7-0.5l0.1,0.3
		c-0.2-0.1-0.4,0-0.4,0.2c0,0.3,0.5,0.4,0.5,0.8c0,0.4-0.4,0.6-0.7,0.5L643.8,60.7z M644.2,32.4h1.1v-3.9L644.2,32.4z M644.2,17
		c0.3-0.1,0.5-0.4,0.5-1.1c0.3,1.5,0.7,2.5,1,3.4c0.3,0.7,0.5,1.1,0.5,1.4c0,0.2-0.1,0.2-0.2,0.3C645.3,19.9,644.6,18.5,644.2,17z
		 M644.3,22.1V23h0.3v-0.9H644.3z M644.7,22.1V23l0.4,0c0.2,0,0.3-0.1,0.3-0.3c0-0.2-0.1-0.2-0.2-0.2c0.1,0,0.2-0.1,0.2-0.2
		c0-0.2-0.1-0.2-0.4-0.2L644.7,22.1z M645.6,10.7c-0.1,0.7-0.4,0.9-0.8,0.9c0.1-1,0.3-1.9,0.6-2.5c0.4-0.8,1-1.3,1.4-1.3
		c0.1,0,0.2,0.1,0.2,0.2c0,0.1-0.2,0.2-0.4,0.4C646.2,8.8,645.8,9.6,645.6,10.7z M644.8,12.1c0.3,0,0.5-0.2,0.7-0.8
		c-0.1,0.4-0.1,0.8-0.1,1.2v1.1c0,0.4-0.1,0.9-0.5,0.9C644.8,13.6,644.8,12.8,644.8,12.1z M645,14.9c0.3,0,0.6-0.3,0.6-0.9
		c0.3,2.5,0.9,3.8,1.3,4.7c0.2,0.5,0.3,0.9,0.3,1.1c0,0.2-0.1,0.3-0.2,0.3C646.1,18.9,645.2,16.9,645,14.9z M645.1,22.4
		c0,0.1-0.1,0.1-0.1,0.1v-0.3C645.1,22.2,645.1,22.3,645.1,22.4z M645.1,22.8c0,0.1-0.1,0.2-0.1,0.2v-0.3
		C645.1,22.6,645.1,22.7,645.1,22.8z M645,59.6c0-0.1,0.1-0.2,0.2-0.2s0.2,0.1,0.2,0.2c0,0.1-0.1,0.2-0.2,0.2S645,59.8,645,59.6z
		 M645.5,22.9l0.5-0.1v-0.2l-0.3,0.1v-0.2l0.2,0v-0.2l-0.2,0.1v-0.2l0.2,0v-0.2l-0.5,0.1V22.9z M646.8,32.4l-1.1-3.9v3.9H646.8z
		 M645.9,12c0.3,0,0.5-0.2,0.7-0.9c-0.1,0.5-0.1,0.9-0.1,1.1c0,0.4,0.1,0.9,0.1,1.1c0,0.4-0.1,0.9-0.5,1c-0.1-0.6-0.2-1.1-0.2-1.7
		C645.8,12.5,645.8,12.2,645.9,12z M646.7,10.7c-0.1,0.7-0.3,0.9-0.7,0.9c0.1-1.4,0.4-2.2,0.9-2.9c0.1-0.2,0.3-0.3,0.4-0.3
		c0.1,0,0.2,0.1,0.2,0.2c0,0.1-0.1,0.2-0.1,0.3C646.9,9.3,646.8,10.1,646.7,10.7z M646,60.3l0.3-1.8l0.5-0.1L647,60l-0.3,0.1
		l-0.1-0.3l-0.3,0.1l-0.1,0.4L646,60.3z M646,14.8c0.3-0.1,0.5-0.3,0.6-1c0.2,1.6,0.7,3.2,1.1,4.2c0.2,0.4,0.2,0.8,0.2,1
		c0,0.2-0.1,0.3-0.2,0.4C646.9,18.3,646.2,16.1,646,14.8z M646.9,22.6l-0.2-0.3c0.1,0,0.1-0.1,0.1-0.2c0-0.2-0.1-0.3-0.4-0.2
		l-0.3,0.1v0.9l0.3-0.1v-0.4l0.2,0.3L646.9,22.6z M646.4,59.5l0.2-0.1l-0.1-0.5l0-0.4l-0.1,0l0,0.4L646.4,59.5z M646.6,22.1
		c0,0.1,0,0.2-0.1,0.2v-0.3C646.5,21.9,646.6,22,646.6,22.1z M646.8,21.9l0.2-0.1v0.8l0.3-0.1v-0.8l0.2,0v-0.2l-0.6,0.2V21.9z
		 M647.7,34.1c-0.2,0-0.3,0-0.5-0.1l-0.4,0.4c0.1,0.5,0.2,0.9,0.2,1.5c0,0.8-0.2,1.8-0.2,2.5c0,2,0.5,3.3,4.1,4.5
		c3.7-1.2,4.1-2.5,4.1-4.5c0-0.7-0.2-1.7-0.2-2.5c0-0.6,0.1-1,0.2-1.5l-0.4-0.4c-0.2,0-0.3,0.1-0.5,0.1c-1.1,0-2.3-0.2-3.3-0.9
		C650,33.9,648.9,34.1,647.7,34.1z M646.9,11.6c0.3,0,0.6-0.3,0.7-0.8c-0.1,0.4-0.1,0.8-0.1,1.1c0,0.5,0.1,0.9,0.1,1.2
		c0,0.5-0.3,0.8-0.7,0.8c-0.1-0.5-0.1-1-0.1-1.4V11.6z M647.4,9.6c0.1,0,0.2,0.2,0.2,0.5c0,0.5-0.2,1-0.7,1
		C647.2,9.8,647.3,9.6,647.4,9.6z M647,14.4c0.3-0.1,0.6-0.2,0.7-0.9c0.1,1.6,0.5,2.9,0.8,3.9c0.2,0.5,0.3,0.8,0.3,1.1
		c0,0.1-0.1,0.3-0.2,0.3C647.9,17.8,647.3,15.7,647,14.4z M647.9,59.8c-0.4,0.2-0.8,0-0.8-0.8c0-0.6,0.3-1,0.8-0.9v0.3
		c-0.3,0-0.5,0.2-0.5,0.7c0,0.5,0.2,0.7,0.5,0.5V59.8z M649.3,61.3c0.7,0,1.2,0.2,1.7,0.5c0.5-0.3,1.1-0.5,1.8-0.5
		c1.3,0,2.1,0.7,2.1,1.5c0,0.7-0.6,1.1-1.2,1.1c-0.5,0-0.9-0.2-0.9-0.7c0-0.3,0.2-0.5,0.5-0.5c0.3,0,0.6,0.4,0.4,0.8
		c0.4,0,0.8-0.3,0.8-0.8c0-0.7-0.7-1.1-1.6-1.1c-0.7,0-1.3,0.2-1.6,0.4c0.5,0.5,0.9,1.1,0.9,1.7c0,0.9-0.7,1.4-1.3,1.4
		c-0.6,0-1.3-0.5-1.3-1.4c0-0.7,0.4-1.2,0.9-1.7c-0.3-0.2-0.9-0.4-1.5-0.4c-1,0-1.6,0.4-1.6,1.1c0,0.5,0.3,0.8,0.8,0.8
		c-0.2-0.4,0.1-0.8,0.4-0.8c0.3,0,0.5,0.2,0.5,0.5c0,0.4-0.4,0.7-0.9,0.7c-0.6,0-1.2-0.4-1.2-1.1C647.1,61.9,647.9,61.3,649.3,61.3z
		 M647.6,21.4l-0.2,1l0.2-0.1l0-0.2l0.2-0.1l0,0.1l0.3-0.1l-0.2-0.8L647.6,21.4z M648.2,39.3c-0.3,0.1-0.7-0.2-0.7-0.7
		c0-0.2,0-0.4,0.1-2.4h0.1v1.9c0.4,0.2,0.8,0.5,0.8,0.9C648.5,39.2,648.4,39.2,648.2,39.3z M648.8,39.9c-0.5,0.4-0.9,0.3-1.3-0.2
		c0.4,0,0.8-0.4,1.1-0.1c-0.3-0.3,0-0.6,0.1-0.9l-0.5-1.6h0.1l0.7,1.6C649.3,39.2,649.3,39.6,648.8,39.9z M647.7,21.5l0.1,0.4
		l-0.1,0.1L647.7,21.5z M648.6,11.4c0,0.7,0.1,1.3,0.1,1.6c0,0.5-0.3,0.8-0.5,0.8c-0.1-0.7-0.2-1.3-0.2-2c0-0.8,0.1-1,0.3-1
		C648.4,10.9,648.6,11,648.6,11.4z M648.8,20.5l0.1-0.4l0.3-0.5l-0.6,0.5l-0.2,0.3h-0.1l0.1-0.4l0.4-0.4l-0.5,0.2l-0.1,0.2H648
		l0.2-0.3l1.1-0.4l0.2-1.2c0.1,0.1,0.1,0.1,0.2,0.1c0.2,0,0.2,0,0.3-0.1l-0.3,1.2l0.7,0.4l0.1,0.4h-0.1l-0.3-0.3l-0.5-0.2l-0.5,0.6
		l-0.2,0.3H648.8z M648,59.8l0.2-1.8l0.5-0.1l0.3,1.7l-0.3,0.1l-0.1-0.4l-0.3,0.1l-0.1,0.4L648,59.8z M648.1,14.2
		c0.2,0,0.5-0.2,0.5-0.8c0.1,0.5,0.3,1.5,0.3,1.9c0,0.4-0.2,0.7-0.4,0.7C648.4,15.5,648.2,14.8,648.1,14.2z M648.4,22.1
		c0.3-0.1,0.4-0.2,0.4-0.5c0-0.3-0.2-0.4-0.4-0.3l-0.3,0.1v0.9L648.4,22.1z M649.6,40.5c-0.5,0.6-1,0.5-1.3,0.1
		c0.3,0,0.8-0.5,1.1-0.3c-0.3-0.3,0.2-0.8,0.2-1.1C650,39.5,650,40,649.6,40.5z M648.6,21.6c0,0.2-0.1,0.3-0.2,0.4v-0.6
		C648.5,21.3,648.6,21.3,648.6,21.6z M648.6,58.9l-0.1-0.8h-0.1l-0.1,0.9L648.6,58.9z M649.7,42.2l1.1-0.8l-0.4-0.3
		c-0.4,0.4-0.8,0.5-1.2,0.2c0.3-0.1,0.7-0.7,1-0.4c-0.3-0.4,0.1-0.8,0.1-1.2c0.4,0.2,0.5,0.9,0.2,1.2l0.4,0.3v-1.8
		c-0.5-0.1-1.1-0.4-1.3-1l-1.1-1.7h0.1l1.3,1.6c0.4,0.2,1.2,0.3,1.2,0.7c0-0.4,0.7-0.5,1.2-0.7l1.3-1.6h0.1l-1.1,1.7
		c-0.1,0.6-0.7,1-1.3,1v1.8l0.4-0.3c-0.3-0.3-0.2-1,0.2-1.2c-0.1,0.4,0.4,0.8,0.1,1.2c0.4-0.3,0.7,0.3,1,0.4
		c-0.4,0.3-0.8,0.2-1.2-0.2l-0.4,0.3l1.1,0.8l-0.3,0.1l-0.9-0.7v1l-0.1,0.1l-0.1-0.1v-1l-0.9,0.7L649.7,42.2z M649.4,16.4
		c0,0.2,0.1,0.4,0.3,0.4c0.2,0,0.3-0.2,0.4-0.4c0.2,0.2,0.3,0.6,0.3,1.3c-0.3-0.1-0.5-0.3-0.5-0.7c-0.1,0.4-0.2,0.7-0.4,0.7
		c-0.1,0-0.2-0.2-0.2-0.4V17c-0.1,0.2-0.4,0.5-0.7,0.4C649,16.9,649.2,16.5,649.4,16.4z M651.1,38.2c-0.6,0-1.1-0.4-1.2-0.9l-1-1.4
		h0.1l1.1,1.4c0.4,0.2,0.9,0.3,1,0.6c0.1-0.3,0.6-0.4,1-0.6l1.1-1.4h0.1l-1,1.5C652.2,37.9,651.7,38.2,651.1,38.2z M649.9,15.1
		c0.6,0,0.8,0.2,0.8,1v0.3c-0.3,0-0.4-0.3-0.5-0.5c-0.1,0.4-0.2,0.5-0.3,0.5c-0.2,0-0.2-0.1-0.2-0.4v-0.3c-0.2,0.4-0.4,0.4-0.6,0.4
		C649.2,15.4,649.4,15.1,649.9,15.1z M651,12.4c0.3,0,0.5-0.3,0.5-0.8c0.1,0.4,0.3,0.6,0.5,0.6c0.2,0,0.4-0.4,0.4-0.8
		c0.1,0.4,0.3,0.7,0.5,0.7c0,0.6-0.1,0.9-0.4,0.9c-0.2,0-0.2-0.3-0.3-0.7c0,0.4-0.2,0.9-0.4,0.9c-0.2,0-0.3-0.2-0.4-0.7
		c-0.1,0.5-0.3,0.9-0.5,0.9c-0.2,0-0.4-0.4-0.4-0.9c-0.1,0.5-0.2,0.7-0.4,0.7c-0.2,0-0.4-0.4-0.4-0.9c-0.1,0.4-0.2,0.7-0.3,0.7
		c-0.3,0-0.4-0.3-0.4-0.9c0.2,0,0.5-0.3,0.5-0.7c0,0.4,0.2,0.8,0.4,0.8c0.2,0,0.4-0.2,0.5-0.6C650.5,12,650.8,12.4,651,12.4z
		 M651.1,37.4c-0.6,0-1.1-0.3-1.2-0.8l-0.8-1.3h0.1l0.8,1.1c0.4,0.2,1,0.3,1.1,0.7c0.1-0.3,0.7-0.5,1.1-0.7l0.7-1.1h0.1l-0.7,1.3
		C652.1,37,651.6,37.4,651.1,37.4z M649.2,57.8l0.2,0c0.4-0.1,0.7,0.2,0.7,0.8s-0.3,0.9-0.7,0.9l-0.2,0V57.8z M651,14
		c0.3,0,0.5-0.4,0.5-0.8c0.1,0.4,0.2,0.7,0.4,0.7s0.4-0.4,0.4-0.9c0.3,0.5,0.4,1,0.4,1.3c0,0.4-0.1,0.5-0.2,0.5
		c-0.2,0-0.4-0.2-0.4-0.7c0,0.6-0.2,0.9-0.4,0.9c-0.1,0-0.3-0.2-0.4-0.6c0,0.5-0.2,0.8-0.4,0.8c-0.2,0-0.3-0.3-0.3-0.8
		c-0.1,0.4-0.3,0.6-0.4,0.6c-0.2,0-0.4-0.3-0.4-0.9c-0.1,0.5-0.3,0.7-0.4,0.7c-0.1,0-0.2-0.1-0.2-0.5c0-0.3,0.1-0.8,0.4-1.3
		c0,0.5,0.2,0.9,0.4,0.9c0.2,0,0.3-0.2,0.4-0.7C650.5,13.6,650.8,14,651,14z M651.6,7.6c0,0.2,0.1,0.5,0.1,0.5
		c0,0.2-0.3,0.4-0.7,0.4c-0.2,0-0.5-0.2-0.5-0.3c0-0.2,0.2-0.5,0.2-0.9c0-0.1,0-0.1-0.1-0.2c0.1,0.1,0.2,0.1,0.4,0.1
		s0.3-0.1,0.4-0.2c-0.7,0.2-0.9-0.2-1-0.5c-0.2,0.1-0.5,0-0.5-0.2c-0.1,0.1-0.2,0.1-0.4,0.2c-0.1-0.5,0.1-0.6,0.6-0.7
		c-0.1-0.1-0.1-0.2-0.1-0.3c0-0.3,0.3-0.4,1-0.4c0.3,0,0.5,0.1,0.4,0.2c0,0.1-0.1,0.1-0.1,0.2c0.4,0.1,0.5,0.4,0.5,0.7
		C651.9,6.9,651.6,7,651.6,7.6z M649.9,58.6c0-0.4-0.2-0.7-0.4-0.6v1.2C649.7,59.2,649.9,58.9,649.9,58.6z M651.1,36.5
		c-0.6,0-0.9-0.4-1-0.8l-0.4-1.3h0.1l0.5,1.1c0.4,0.2,0.9,0.3,0.9,0.7c0-0.4,0.5-0.5,0.8-0.7l0.5-1.1h0.1l-0.4,1.3
		C651.8,36.2,651.6,36.5,651.1,36.5z M649.7,22.9c0-0.2,0.2-0.4,0.6-0.6c-0.1,0.2-0.2,0.3-0.4,0.5c0.3-0.2,0.3-0.2,0.4-0.3
		c-0.2,0.5-0.4,0.5-0.5,0.5C649.7,23,649.7,22.9,649.7,22.9z M652,22.1c-0.3-0.1-0.7-0.1-0.9-0.1c-0.2,0-0.6,0.1-0.9,0.1
		c-0.1-0.3-0.3-0.8-0.3-1.1c0-0.4,0.3-0.6,1.1-0.6c0.9,0,1.2,0.2,1.2,0.6C652.2,21.3,652.1,21.8,652,22.1z M650.1,23.3
		c0-0.2,0.2-0.5,0.5-0.9c-0.1,0.3-0.2,0.4-0.3,0.8c0.2-0.3,0.3-0.4,0.4-0.5c-0.1,0.8-0.3,0.9-0.5,0.9
		C650.2,23.6,650.1,23.5,650.1,23.3z M651.8,63.8c0-0.6-0.4-1.1-0.8-1.5c-0.4,0.4-0.8,0.9-0.8,1.5c0,0.7,0.4,0.9,0.8,0.9
		C651.4,64.8,651.8,64.5,651.8,63.8z M650.4,59.4v-1.8l0.7,0v0.3l-0.4,0v0.5l0.3,0v0.3h-0.3v0.5l0.4,0v0.3L650.4,59.4z M651,24.5
		c-0.2,0-0.4-0.1-0.4-0.5c0-0.3,0.1-0.5,0.2-1c0.1,0.2,0.2,0.4,0.2,0.8c0-0.3,0.1-0.5,0.2-0.8c0.2,0.5,0.2,0.7,0.2,1
		C651.4,24.4,651.2,24.5,651,24.5z M651.1,35.7c-0.2,0-0.4-0.2-0.4-0.4c0-0.3,0.1-0.4,0.3-0.8l0.1-1h0.1l0.1,1
		c0.2,0.4,0.3,0.5,0.3,0.8C651.5,35.5,651.2,35.7,651.1,35.7z M650.9,21.3v0.3h0.3v-0.3l0.2-0.6h-0.2l-0.1,0.4l-0.1-0.4h-0.3
		L650.9,21.3z M651,6.1c0.1,0,0.2-0.1,0.2-0.2c0-0.1-0.1-0.2-0.2-0.2c-0.1,0-0.2,0.1-0.2,0.2C650.8,6,650.9,6.1,651,6.1z
		 M651.7,58.6l-0.1-0.5h-0.1l0.1,0.8v0.6h-0.3v-1.8l0.3,0l0.2,0.7l0,0.4h0l0.1-0.4l0.2-0.7l0.3,0v1.8l-0.3,0v-0.6l0.1-0.8h-0.1
		l-0.1,0.5L652,59h-0.2L651.7,58.6z M667.3,24.3c-0.7,0.1-1.4-0.1-1.8-0.5c-0.4-0.4-0.6-1.1-0.5-1.7l-0.7-0.4
		c-1.9,1.7-4.1,2.9-6.5,2.9c-1.5,0-3.1-0.3-4.5-1l-1.9,2.6v6.8c0.8,0.6,1.9,0.9,3,0.9c0.2,0,0.5,0,0.7-0.1l0.7,0.8
		c-0.2,0.5-0.3,1.1-0.3,1.6c0,0.4,0.1,0.8,0.1,1.2h9.1c0.1-0.9,0.7-1.4,1.9-1.5c0-1.4-0.7-4-0.7-5.7c0-1.4,0.5-3.3,1.7-5.1
		L667.3,24.3z M651.8,23.6c-0.2,0-0.4-0.1-0.5-0.9c0.1,0.2,0.2,0.3,0.4,0.5c-0.1-0.3-0.2-0.4-0.3-0.8c0.4,0.4,0.5,0.7,0.5,0.9
		C652,23.5,651.9,23.6,651.8,23.6z M651.3,55.6c2.9-1.5,6.7-2.2,9.5-3.7c3-1.7,5.5-5.2,5.7-12.7c-1.4-0.1-1.9-0.7-1.9-1.5h-9
		c0,0.2,0.1,0.6,0.1,0.9c0,2.1-0.6,3.6-4.3,4.9V55.6z M652.5,15.8v0.3c0,0.3-0.1,0.4-0.2,0.4c-0.1,0-0.3-0.2-0.4-0.5
		c0,0.3-0.2,0.5-0.4,0.5v-0.3c0-0.8,0.2-1,0.8-1c0.4,0,0.7,0.2,0.9,1C652.9,16.2,652.7,16.2,652.5,15.8z M652.6,17v0.4
		c0,0.2-0.1,0.4-0.2,0.4c-0.2,0-0.3-0.2-0.4-0.7c-0.1,0.3-0.3,0.6-0.5,0.7c0-0.7,0.1-1.1,0.3-1.3c0.1,0.3,0.3,0.3,0.5,0.3
		c0.2,0,0.4-0.2,0.4-0.4c0.2,0.2,0.4,0.4,0.5,0.9C653,17.5,652.7,17.2,652.6,17z M653.2,20.5l-0.2-0.3l-0.5-0.6l-0.5,0.2l-0.3,0.3
		h-0.1l0.1-0.4l0.7-0.4l-0.3-1.2c0.1,0.1,0.1,0.1,0.3,0.1c0.1,0,0.2,0,0.2-0.1l0.1,1.2l1.1,0.4l0.2,0.3H654l-0.1-0.2l-0.5-0.2
		l0.4,0.4l0.1,0.4h-0.1l-0.2-0.3l-0.6-0.5l0.3,0.5l0.1,0.4H653.2z M652.2,23c-0.1,0-0.3-0.1-0.5-0.5c0.2,0.1,0.1,0.1,0.4,0.3
		c-0.2-0.2-0.3-0.3-0.4-0.5c0.4,0.2,0.6,0.4,0.6,0.6C652.4,22.9,652.3,23,652.2,23z M652.5,40.5c-0.4-0.5-0.4-0.9,0-1.4
		c0,0.4,0.5,0.8,0.2,1.1c0.3-0.3,0.8,0.3,1.1,0.3C653.5,41,653,41.1,652.5,40.5z M653.6,20.9c0.8,0,2.5,0.9,4,0.9
		c0.9,0,1.4-0.1,1.9-0.5c-0.1,1.6-0.8,2.1-2.1,2.1c-1.7,0-4.1-1.2-4.9-1.2C652.7,21.3,652.9,20.9,653.6,20.9z M652.7,57.7l0.3,0.1
		v1.7l-0.3,0V57.7z M653.2,39.9c-0.4-0.3-0.4-0.7-0.2-1l0.7-1.6h0.1l-0.5,1.5c0.1,0.3,0.3,0.6,0.1,0.9c0.4-0.3,0.7,0.1,1.1,0.1
		C654.1,40.2,653.8,40.3,653.2,39.9z M654.5,59.8l-0.7-0.2v-0.4l-0.3-0.1l-0.1,0.4l-0.3-0.1l0.5-1.6c0.2,0,0.7,0.1,0.9,0.2v0.3
		l-0.4-0.1v0.4l0.4,0.1V59l-0.4-0.1v0.5l0.4,0.1V59.8z M654,14.2c-0.1,0.5-0.2,1.3-0.4,1.8c-0.2,0-0.4-0.3-0.4-0.7
		c0-0.4,0.2-1.3,0.3-1.9C653.4,14,653.8,14.2,654,14.2z M655.1,14.4c-0.2,1.3-0.8,3.3-1.6,4.5c-0.1-0.1-0.2-0.2-0.2-0.3
		c0-0.3,0.1-0.6,0.3-1.1c0.3-1,0.7-2.3,0.8-3.9C654.5,14.2,654.8,14.4,655.1,14.4z M653.7,22.1c0.2,0.1,0.4-0.1,0.4-0.4
		c0-0.3-0.1-0.5-0.4-0.6c-0.2,0-0.4,0.1-0.4,0.4C653.4,21.9,653.5,22.1,653.7,22.1z M653.5,11.4c0-0.4,0.2-0.5,0.3-0.5
		c0.2,0,0.2,0.2,0.2,1c0,0.7,0,1.3-0.1,2c-0.2,0-0.5-0.3-0.5-0.8C653.5,12.7,653.5,12.1,653.5,11.4z M653.6,59l0.2,0v-0.5l0-0.3h0
		l-0.1,0.3L653.6,59z M653.8,22c-0.1,0-0.1-0.2-0.1-0.4c0-0.2,0-0.4,0.1-0.4c0.1,0,0.1,0.2,0.1,0.4C653.9,21.9,653.9,22,653.8,22z
		 M653.9,39.4c-0.2-0.1-0.3-0.2-0.3-0.4c0-0.3,0.4-0.7,0.8-0.9v-1.8h0.1c0.1,1.9,0.1,2.1,0.1,2.3C654.6,39.2,654.2,39.5,653.9,39.4z
		 M656.1,14.8c-0.2,1.3-0.9,3.5-1.7,4.6c-0.1-0.1-0.2-0.2-0.2-0.4c0-0.3,0.1-0.6,0.2-1c0.4-1,0.9-2.6,1.1-4.2
		C655.6,14.5,655.8,14.8,656.1,14.8z M655,22.5l-0.2-0.5c0.1,0,0.2-0.1,0.2-0.2c0-0.2-0.1-0.3-0.4-0.4l-0.3-0.1v0.9l0.3,0.1V22
		l0.1,0.4L655,22.5z M654.7,9.6c0.2,0,0.3,0.2,0.4,1.6c-0.5,0-0.7-0.5-0.7-1C654.5,9.7,654.5,9.6,654.7,9.6z M655.2,11.6v0.9
		c0,0.4,0,0.9-0.1,1.4c-0.3,0-0.7-0.3-0.7-0.8c0-0.3,0.1-0.7,0.1-1.2c0-0.3,0-0.7-0.1-1.1C654.6,11.3,654.8,11.6,655.2,11.6z
		 M654.7,21.8c0,0.1-0.1,0.2-0.1,0.1v-0.4C654.7,21.6,654.7,21.7,654.7,21.8z M655.4,10.7c-0.1-0.6-0.3-1.4-0.7-1.9
		c-0.1-0.1-0.1-0.2-0.1-0.3c0-0.1,0.1-0.2,0.2-0.2c0.2,0,0.3,0.2,0.4,0.3c0.5,0.7,0.8,1.5,0.9,2.9C655.7,11.6,655.6,11.4,655.4,10.7
		z M657.1,14.9c-0.3,2-1.1,4-1.9,5.3c-0.2-0.1-0.3-0.2-0.3-0.3c0-0.3,0.2-0.7,0.3-1.1c0.3-0.9,1-2.3,1.3-4.7
		C656.5,14.6,656.8,14.9,657.1,14.9z M655,59.2c0-0.1,0.1-0.2,0.2-0.2s0.2,0.1,0.2,0.2c0,0.1-0.1,0.2-0.2,0.2S655,59.3,655,59.2z
		 M655.3,22.6c0.2,0.1,0.5,0,0.5-0.3c0-0.3-0.1-0.5-0.4-0.6l-0.3-0.1v1L655.3,22.6z M656.5,10.7c-0.1-1.1-0.5-1.9-1-2.3
		c-0.2-0.2-0.4-0.3-0.4-0.4c0-0.1,0.1-0.2,0.2-0.2c0.3,0,0.9,0.5,1.4,1.3c0.3,0.6,0.5,1.5,0.6,2.5C656.9,11.6,656.6,11.4,656.5,10.7
		z M665.8,57.1c-0.4,0-0.8-0.2-0.8-0.7c0-0.3,0.2-0.6,0.5-0.6c-1.1-0.3-2.8,1.7-5.5,1.7c-1.6,0-3.2-0.7-4.8-2
		c3.5-1.1,5.6-2.5,7.8-2.5c2.2,0,3.8,1.4,3.8,2.9C666.8,56.7,666.4,57.1,665.8,57.1z M655.5,22.3c0,0.2-0.1,0.3-0.2,0.2v-0.7
		C655.4,21.9,655.5,22,655.5,22.3z M656.2,12c0.1,0.2,0.1,0.4,0.1,0.7c0,0.5-0.1,1.1-0.2,1.7c-0.5-0.1-0.5-0.5-0.5-1
		c0-0.3,0.1-0.8,0.1-1.1c0-0.3-0.1-0.7-0.1-1.1C655.7,11.9,655.9,12,656.2,12z M658.1,33v-2c-1.5-0.3-2.6-0.7-2.6-1.7h5.8
		c0,1-1.1,1.4-2.6,1.7v2.1L658.1,33z M657.9,17c-0.4,1.4-1.1,2.9-1.9,3.9c-0.1-0.1-0.2-0.1-0.2-0.3c0-0.2,0.3-0.7,0.5-1.4
		c0.3-0.9,0.7-1.9,1-3.4C657.4,16.7,657.6,16.9,657.9,17z M655.9,22.8l0.5,0.1v-0.2l-0.3-0.1v-0.2l0.2,0.1v-0.2l-0.2,0v-0.2l0.2,0.1
		V22l-0.5-0.1V22.8z M656.6,60.5L656.6,60.5c-0.5,0-0.7-0.4-0.7-1c0-0.5,0.2-0.9,0.5-0.9c0.4,0,0.5,0.4,0.5,1c0,0.3-0.1,0.5-0.3,0.7
		l0.2-0.1l0.2,0.1v0.3L656.6,60.5z M657.7,40.1c0.7,1.3,1.6,1.6,2.7,1.6c0.6,0,1.1-0.3,1.6-0.3c0.4,0,0.8,0.3,0.8,0.7
		c0,0.2-0.1,0.4-0.2,0.5l-4.3,6.7h-1l-0.2-0.5c0.2-0.1,0.3-0.3,0.3-0.4c0-1-1.1-1.8-1.1-3.8c0-1.7,0.7-2.4,0.7-3.1
		c0-0.2-0.1-0.5-0.2-0.8l0.4-0.6H657.7z M656.2,59.5c0,0.3,0.1,0.7,0.3,0.7c0.2,0,0.2-0.3,0.2-0.7c0-0.3-0.1-0.6-0.2-0.6
		C656.3,58.9,656.2,59.2,656.2,59.5z M658.1,33.8c-1.3-0.2-1.6-0.5-1.6-0.9c0-0.4,0.2-0.7,1.2-1v0.6c-0.3,0.1-0.4,0.2-0.4,0.3
		c0,0.2,0.1,0.2,0.8,0.4l0.5,0.1c1.5,0.3,1.9,0.8,2,1.1c0.1,0.1,0.1,0.2,0.1,0.3c0,0.2-0.1,0.3-0.1,0.3c-0.3,0,0.1-0.8-2-1.2
		L658.1,33.8z M657.3,12.1c0,0.7,0,1.5-0.1,2.4c-0.5-0.1-0.5-0.5-0.5-0.9v-1.1c0-0.4,0-0.8-0.1-1.2C656.7,11.9,657,12.1,657.3,12.1z
		 M656.6,22.1V23l0.2,0l0-0.7L657,23l0.3,0v-0.9h-0.2l0,0.7l-0.2-0.7L656.6,22.1z M657.1,55.9c0.3,0.1,1.9,0.1,2.3,0.1
		c1.1,0,2.8-0.2,3.8-0.7c-2.2,1.2-4.2,1.1-6.1,1c1,0.5,2,0.7,2.9,0.7c2.3,0,4-1.7,5.2-1.7c0.7,0,1.1,0.3,1.2,0.9
		c0-0.1,0.1-0.2,0.1-0.3c0-1.7-2-2.6-3.4-2.6c-1.9,0-4.4,1.4-6.3,2c2.2,0,4.6-1.1,6.5-1.1c0.6,0,1.3,0.1,1.6,0.3
		C662.4,54.2,660.4,55.7,657.1,55.9z M656.9,44.5c0,1.8,0.9,2.5,1,3.4v-6.5l-0.4-0.4C657.6,42.3,656.9,42.7,656.9,44.5z M658.7,34.3
		v0.2c0.8,0.2,1.3,0.3,1.3,0.6h-3c0-0.3,0.4-0.4,1.2-0.6v-0.3L658.7,34.3z M657.2,20.2c0-0.2,0.1-0.3,0.1-0.5c0.1,0.3,0.8,0.5,0.8,1
		v0.2c0.1-0.3,0.4-0.3,0.6-0.3c0.5,0,0.7,0,0.8-0.1c-0.1,0.5-0.4,0.8-0.9,0.8C658,21.3,657.2,20.9,657.2,20.2z M658.2,59.2v1.3
		c0,0.3-0.2,0.5-0.5,0.4c-0.3-0.1-0.4-0.3-0.4-0.7v-1.3l0.3,0.1v1.2c0,0.2,0.1,0.4,0.2,0.4c0.1,0,0.2-0.1,0.2-0.2v-1.3L658.2,59.2z
		 M659.1,31.6l0.5-0.1c1.7-0.4,2.7-1,2.7-2.3c0-1.1-0.9-1.7-1.9-1.7c-0.7,0-1.1,0.2-1.6,0.6c-0.4,0.3-0.6,0.4-1,0.4
		c-0.2,0-0.4-0.1-0.4-0.2c0-0.4,1.4-1.6,2.9-1.6c1.5,0,2.7,0.9,2.7,2.4c0,1.7-1.4,2.5-3.4,3l-0.7,0.1V31.6z M658.4,12.3v0.8
		c0,1-0.1,2.4-0.4,3.5c-0.3-0.1-0.5-0.4-0.5-1c0-0.2,0-0.4,0.1-0.5c0.1-0.4,0.2-1.3,0.2-2.4c0-0.4,0-0.8-0.1-1.3
		C657.8,12.1,658.2,12.3,658.4,12.3z M657.7,19.3c0-0.1,0-0.2,0.1-0.3c0.2,0.3,0.9,0.4,0.9,0.9c0.1-0.5,0.9-0.3,1.2-0.6
		c-0.1,0.7-0.4,0.9-0.9,0.9C658.3,20.2,657.7,19.9,657.7,19.3z M658.4,27.8c0-0.1-0.1-0.2-0.2-0.2c-0.1,0-0.2,0.1-0.2,0.2
		c0,0.1,0.1,0.2,0.2,0.2C658.3,28,658.4,28,658.4,27.8z M658.1,18.4c0-0.1,0-0.2,0.1-0.3c0.2,0.3,0.8,0.3,0.8,0.8
		c0.2-0.4,0.8-0.3,1-0.5c-0.1,0.5-0.4,0.9-0.9,0.9C658.4,19.3,658.1,18.9,658.1,18.4z M659.6,61.6l-0.8-0.3v-0.4l-0.3-0.1l-0.1,0.4
		l-0.2-0.1l0.5-1.6l1,0.4v0.3l-0.4-0.2v0.4l0.3,0.1v0.3l-0.3-0.1v0.5l0.4,0.2V61.6z M658.7,41.9c-0.2-0.1-0.4-0.2-0.5-0.3V48
		l0.5-0.7V41.9z M659,18.4c-0.5,0-0.8-0.4-0.8-1c0.1,0.1,0.8,0.2,0.7,0.8c0.1-0.5,0.5-0.4,0.8-0.7v0.3C659.8,18,659.5,18.4,659,18.4
		z M658.6,60.5l0.2,0.1v-0.9l-0.1,0l-0.1,0.4L658.6,60.5z M659,17.5c-0.2-0.1-0.3-0.3-0.3-0.5c0-0.3,0.2-0.6,0.2-1
		c0.3,0.3,0.5,0.7,0.5,1C659.4,17.2,659.2,17.4,659,17.5z M659.5,42.2c-0.2-0.1-0.3-0.1-0.5-0.2v4.7l0.5-0.7V42.2z M659.2,13.5
		c0-3.3,1.7-4.7,3.4-4.7c1.4,0,2.3,0.9,2.3,2c0,0.9-0.7,1.6-1.6,1.6c-0.3,0-0.6,0-0.9-0.2c0.8,1.8,2.5,2.9,2.5,5.3
		c0,1.2-0.5,2.6-1.5,3.4c-1.4,0.2-2.6,1.1-2.7,1.9c-0.4-0.3-0.8-1-0.8-1.6c0-0.7,0.4-1.4,1.3-1.6C659.7,17.6,659.2,15.2,659.2,13.5z
		 M661.9,11.3c0-0.5,0.3-0.8,0.7-0.8c0.4,0,0.7,0.3,0.7,0.7c0,0.4-0.3,0.7-0.9,0.7c0.2,0.2,0.6,0.3,1,0.3c0.6,0,1.1-0.5,1.1-1.2
		c0-1-0.7-1.7-1.9-1.7c-1.4,0-3,1.3-3,4.4c0,1.9,0.6,4.1,2.2,6.1c-1,0.2-1.5,0.8-1.5,1.5c0,0.4,0.1,0.8,0.3,1c0.4-0.7,1-1.1,2.1-1.4
		c-0.6-0.3-1.3-0.2-1.8,0.2c0.3-0.7,1-0.9,1.9-0.8c-2.5-4.5-2.8-7.3-2.1-9c-0.3,1.6-0.2,4.1,2.5,8.7c0.2-3.7-1.4-4.4-1.8-6.9
		c0.7,2.4,2.5,3.1,2.3,7c0.5-0.7,0.7-1.7,0.7-2.4C664.5,14.9,661.9,13.2,661.9,11.3z M659.8,42.3v3.4l0.5-0.7v-2.7
		C660.1,42.3,659.9,42.3,659.8,42.3z M660.4,62l-0.2-0.7l0-0.2H660v0.7l-0.3-0.1v-1.9L660,60c0.4,0.2,0.5,0.4,0.5,0.7
		c0,0.1-0.1,0.4-0.2,0.4l0.4,1.1L660.4,62z M660.3,60.6c0-0.2-0.1-0.3-0.3-0.4v0.6C660.1,60.9,660.3,60.8,660.3,60.6z M661,42.2
		c-0.1,0-0.3,0.1-0.5,0.1v2.3l0.5-0.7V42.2z M661.5,62.4l-0.7-0.3v-1.9l0.7,0.3v0.3l-0.4-0.2v0.5l0.4,0.1v0.3l-0.4-0.1V62l0.4,0.1
		V62.4z M661.7,42c-0.1,0-0.3,0.1-0.5,0.2v1.3l0.7-1C662,42.3,661.9,42,661.7,42z M661.9,61.7c0-0.1,0.1-0.2,0.2-0.2
		c0.1,0,0.2,0.1,0.2,0.2c0,0.1-0.1,0.2-0.2,0.2C662,62,661.9,61.9,661.9,61.7z M663.4,61.4l0.3,0.1l-0.3,1.7l-0.5-0.2l-0.2-1.9
		l0.3,0.1l0.1,1.1v0.5l0.1,0l0-0.5L663.4,61.4z M663.5,59.3c0,0.5,0.3,0.7,0.7,0.7c0.6,0,1.4-0.4,2-0.8c-0.3-0.4-1-0.8-1.6-0.8
		C663.9,58.4,663.5,58.8,663.5,59.3z M663.5,51.6c2.5-0.7,2.5-3.4,3.3-5.8c3.1,2.2,4.3,4.1,4.3,6.3c0,2.5-1.4,3.7-2.7,3.7
		c-0.8,0-1.3-0.5-1.3-1.1c0-0.4,0.4-0.8,0.8-0.8c0.4,0,0.7,0.3,0.7,0.5c0.1-0.1,0.1-0.2,0.1-0.4c0-0.6-0.6-1.5-0.8-2.4
		c-0.3,0.7-1.3,1.2-2.2,1.2C664.8,52.8,663.8,52.3,663.5,51.6z M667.6,59.2c-0.5,0-1.1,0.3-1.7,0.6c-0.7,0.4-1.4,0.7-2.2,0.5
		c0.9,0.4,2.1,0.7,3,0.7c1,0,2-0.4,2-1.1C668.7,59.6,668.3,59.2,667.6,59.2z M664.5,63.6l-0.7-0.2v-1.7l0.7,0.2v0.3l-0.4-0.2v0.5
		l0.3,0.1v0.3l-0.3-0.1v0.5l0.4,0.1V63.6z M670.6,52.1c0-1.7-1-3.7-2.7-4.9c1.3,1.9,2,4,1.8,6c-0.3-1.8-1-4.1-2.3-5.8
		c0.1,1.9-0.6,4-1.7,4.4c0.9-0.8,1.6-2.8,1.1-4.4c-0.5,2.6-1.3,4-2.6,4.5c0.2,0.2,0.8,0.5,1.4,0.5c1.2,0,2.3-0.8,2.2-3.2V49
		c0,0,0,0,0,0.1c0.1,2.9,1.1,3.8,1.1,4.9c0,0.9-0.6,1.4-1.3,1.1C668.8,55.9,670.6,54.8,670.6,52.1z M665.3,63.8l-0.2-0.5l0-0.1h-0.1
		v0.6l-0.3-0.1v-1.8l0.3,0.1c0.3,0.1,0.5,0.3,0.5,0.7c0,0.2-0.1,0.4-0.2,0.4l0.3,0.8L665.3,63.8z M665.2,62.5c0-0.2-0.1-0.3-0.3-0.3
		v0.6C665.1,62.9,665.2,62.8,665.2,62.5z M666.8,22.8c-0.9-1-1.4-2.6-1.4-3.9c0-2.8,1.7-4.3,3.1-4.3c-0.1,0.3-0.1,0.6-0.1,0.9
		c0,1.3,0.8,1.7,0.8,3.4c0.5-0.4,1.4-0.7,2-0.7c0.7,0,1,0.1,1.1,0.2c0.2,1.4-0.5,2.8-1.7,3.4c0.5,0.2,0.8,0.5,1,0.7
		c0-0.4,0.4-0.8,1-0.8c0.8,0,1.6,0.6,1.6,1.7c0,1-0.9,1.8-2,1.8C670.1,25.3,668.6,22.8,666.8,22.8z M666,62.2v1.2
		c0,0.2,0.1,0.3,0.2,0.3c0.1,0,0.2-0.1,0.2-0.2v-1.2h0.3v1.2c0,0.4-0.2,0.6-0.5,0.6c-0.3,0-0.5-0.2-0.5-0.6v-1.3L666,62.2z
		 M673.8,23.5c0-0.7-0.4-1.4-1.2-1.4c-0.1,0-0.2,0-0.4,0.1c0.3-0.1,0.6,0.2,0.6,0.5c0,0.4-0.3,0.6-0.6,0.6c-0.8,0-0.8-1.1-2.6-1.4
		c2-0.8,2.3-2.3,2.3-3.2c-0.2-0.1-0.4-0.1-0.7-0.1c-0.8,0-1.7,0.3-2.6,1.5c0.1-0.3,0.1-0.7,0.1-1.1c0-1.6-0.8-2.2-0.8-3.2
		c0-0.2,0-0.5,0.1-0.6c-0.1,0-0.2,0.1-0.3,0.1c-1.2,0.5-2,1.8-2,3.8c0,1.1,0.5,2.4,0.8,3c-0.3-2.5-0.2-4.4,0.7-5.7
		c-0.4,1.4-0.7,3.3-0.2,5.6c0.3-1.1,0.6-2.5,0.8-3.7c0.1,1.2-0.1,2.7-0.4,3.8c0.9-1,2.3-2.3,3.5-2.7c-1.4,0.9-2.6,2-3.2,2.9
		c1-0.5,1.9-1.1,2.7-1.6c-0.5,0.7-1.6,1.4-2.5,1.9c0.5,0,1.5,0,2.1,0.4c1.3,0.8,2,1.5,2.8,0.9c-0.7,0.9-1.8,0.2-3-0.6
		c-0.8-0.5-1.7-0.5-2-0.4c1.4,0.7,2.8,2.2,4.3,2.2C673.2,24.9,673.8,24.3,673.8,23.5z M667.5,63.5l-0.2,0.1l-0.2-0.9H667l0.1,0.7
		v0.6l-0.3,0v-1.7l0.3,0l0.2,0.7l0,0.4h0.1l0-0.4l0.2-0.7l0.3-0.1v1.5l-0.3,0.1v-0.5l0.1-0.6l-0.1,0L667.5,63.5z M671.4,29
		c0,2-1.1,3.9-1.1,5.8c0,0.3,0.1,0.6,0.2,0.9c-1.9-1-3.4-3.3-3.4-5.8c0-2.8,1.8-3.9,1.8-5.2c0-0.1,0-0.2-0.1-0.3
		C670.5,25.2,671.4,27,671.4,29z M668.5,29.3c0-0.9,0.3-2.8,0.5-3.6c-1,1.6-1.5,2.8-1.5,4.1c0,1.9,0.8,3.6,2.3,5
		c-0.1-2,1.1-3.9,1.1-5.9c0-1.3-0.3-2.5-1.1-3.4c0.2,0.5,0.3,1.8,0.3,2.7c0,1.3-0.4,3.2-0.9,4.8c0.3-2.1,0.4-3.5,0.4-4.8
		c0-0.5-0.1-1.8-0.3-2.6c-0.2,0.9-0.4,2.2-0.5,3.6c-0.1,0.8-0.2,1.6-0.2,2.5C668.5,31.2,668.5,30.1,668.5,29.3z M671.2,41.9
		c1,0.9,1.9,2.4,1.9,4.6c0,1.7-0.7,3.1-1.6,3.5c-0.5-1.6-1.4-2.5-2.1-3.3c-1-1.1-1.8-2.2-1.8-4.4c0-0.9,0.2-2.3,0.5-3
		C668.8,40.4,670,40.8,671.2,41.9z M671.3,36.7c0.3,0,0.9-0.1,1.1-0.5c-0.1,0.1-0.2,0.1-0.4,0.1c-0.4,0-0.7-0.4-0.7-0.8
		c0-0.5,0.4-0.9,1.1-1c1.1-0.1,2.1,1.1,2.1,2.6c0,1.9-1.4,3.1-3.1,3.1c-1.9,0-3.6-1.4-3.6-4.3c0-0.7,0.1-1.2,0.2-1.7
		C668.6,35.9,670,36.7,671.3,36.7z M668.4,35.9c0.4,1.3,1.6,2.4,2.9,2.4c0.9,0,1.5-0.3,1.9-1.1c-0.3,0.9-1,1.5-1.9,1.5
		c-1.6,0-2.6-1.1-3.2-2.3c0.2,1.9,1.3,3.4,3.2,3.4c1.5,0,2.7-1.1,2.7-2.7c0-1.3-0.7-2.2-1.6-2.2c-0.2,0-0.4,0.1-0.5,0.2
		c0.1-0.1,0.2-0.1,0.4-0.1c0.4,0,0.7,0.3,0.7,0.8c0,0.7-0.6,1.3-1.6,1.3C670.1,37.2,669.2,36.7,668.4,35.9z M668.2,41.3
		c-0.1,0.6-0.1,0.8-0.1,1.1c0,2.1,0.8,3.1,1.6,4.1c0.7,0.7,1.4,1.7,2,2.9c0.4-0.5,0.9-1.5,0.9-2.8c0-2.2-1.1-4.3-3.6-5.7
		c1.5,1.7,2.7,3.7,2.8,6.8c-0.5-2.9-1.6-4.9-3.1-6.5c0.4,2,1.3,3.7,2.2,5.4C669.6,45.2,668.6,43.4,668.2,41.3z"/>
</g>
<rect x="619.2" y="8.6" fill="#5C5D5E" width="1" height="56.6"/>
<g>
	<g>
		<path fill="#94B33B" d="M501.4,44.1h-4.2l0-0.5l1.5-0.7l0.7-10.2l-1.4-0.7l0-0.5h5.8c2.1,0,3.9,0.9,3.7,2.9
			c-0.1,0.8-0.9,2-2.6,2.7c2.1,0.4,2.9,1.6,2.8,3.3c-0.2,2.4-2.9,3.7-5.4,3.7C501.9,44.1,501.6,44.1,501.4,44.1z M505.1,40.9
			c0.1-1.5-0.4-2.9-3.1-2.9c-0.1,0-0.1,0-0.2,0l-0.3,4.8c0.4,0.1,1,0.2,1.6,0.2C504.4,43,505,42.6,505.1,40.9z M504.9,35
			c0.1-1.5-0.4-2.6-2.7-2.6l-0.3,4.5c0.2,0,0.5,0.1,0.8,0.1C504.4,37,504.8,36.6,504.9,35z"/>
		<path fill="#94B33B" d="M513.7,42.5l0,0.5l-3.5,1.3l-0.6-0.3l0.6-7.6l-1.3-0.2l0-0.5l3.6-1.3h0.7l-0.4,2.6l-0.4,5.4H513.7z
			 M511.8,30.2c0.5,0,1.6,0.8,1.6,1.4c0,0.6-1.1,1.6-1.6,1.6c-0.6,0-1.6-0.8-1.6-1.4S511.3,30.2,511.8,30.2z"/>
		<path fill="#94B33B" d="M514.7,39.7c0.2-3.1,2.1-5.2,4.6-5.2c1.6,0,2.6,0.8,2.7,2.1c0,1.5-1.7,2.9-4.5,3.3c0,1.9,0.7,2.7,1.6,2.7
			c0.6,0,1.4-0.4,2.3-1.3l0.4,0.7c-1.7,1.9-2.9,2.4-4,2.4C515.6,44.4,514.4,42.9,514.7,39.7z M517.4,39.1c1.4-0.2,2.3-0.9,2.3-2
			c0-1.1-0.5-1.6-0.9-1.6c-0.2,0-0.5,0.1-0.7,0.2c-0.3,0.3-0.5,1.2-0.7,3.2L517.4,39.1z"/>
		<path fill="#94B33B" d="M528.7,44c0.2-1.7,0.4-3.3,0.6-5.2c0.2-1.9-0.1-2.4-0.7-2.4c-0.8,0-2,1.4-2.2,4.8v-0.1l-0.2,2.5l-1.9,0.4
			h-0.7l0.6-7.6l-1.3-0.2l0-0.5l3.3-1.3h0.7l-0.2,2.9c1.2-2.1,2.2-2.9,3.3-2.9c1.5,0,2.2,1.2,2,3.7c-0.2,2-0.3,3-0.5,4.4h1.3l0,0.5
			l-3.5,1.3L528.7,44z"/>
		<path fill="#94B33B" d="M533.9,39.7c0.2-3.1,2.1-5.2,4.6-5.2c1.6,0,2.6,0.8,2.7,2.1c0,1.5-1.7,2.9-4.5,3.3c0,1.9,0.7,2.7,1.6,2.7
			c0.6,0,1.4-0.4,2.3-1.3L541,42c-1.7,1.9-2.9,2.4-4,2.4C534.9,44.4,533.6,42.9,533.9,39.7z M536.7,39.1c1.4-0.2,2.3-0.9,2.3-2
			c0-1.1-0.5-1.6-0.9-1.6c-0.2,0-0.5,0.1-0.7,0.2c-0.3,0.3-0.5,1.2-0.7,3.2L536.7,39.1z"/>
		<path fill="#94B33B" d="M542,43.9l0.3-2.3h0.4c1,1.1,1.7,1.7,2.7,1.7c0.6,0,1.1-0.3,1.1-0.8c0-0.6-0.4-1-1.8-2
			c-1.7-1.1-2-2.1-1.9-3.3c0.1-1.5,1.5-2.7,3.8-2.7c1.1,0,1.9,0.2,2.5,0.5l-0.5,2.3h-0.4c-0.9-1.2-1.4-1.7-2.3-1.7
			c-0.4,0-0.9,0.2-1,0.8c0,0.5,0.1,0.9,1.7,1.9c1.7,1.1,2.2,2,2.1,3.3c-0.1,1.6-1.5,2.9-3.9,2.9C543.7,44.4,542.8,44.3,542,43.9z"/>
		<path fill="#94B33B" d="M552.6,44.4c-1.3,0-2.2-1-2-3l0.5-5.7h-1.3l0.1-0.9h1.4l0.2-1.7l2-0.7h0.6l-0.2,2.4h0.3l2.1-0.1l-0.2,1.2
			l-1.9-0.2h-0.3l-0.5,5.1c-0.1,1.2,0.4,1.7,0.9,1.7c0.5,0,0.8-0.2,1.5-0.9l0.4,0.5C554.8,43.6,553.6,44.4,552.6,44.4z"/>
		<path fill="#94B33B" d="M562.2,44l0.2-2.5c-1.4,2.5-2.4,2.8-3.4,2.8c-1.3,0-2.4-1.3-2.3-4c0.2-4.3,3-5.8,5.4-5.8
			c0.5,0,1.3,0.1,1.9,0.3l1.1-1l0.5,0.1l-0.6,8.6h1.3l0,0.5l-3.5,1.3L562.2,44z M562.6,38.5l0.1-2.3c-0.4-0.3-0.9-0.4-1.4-0.4
			c-0.4,0-0.7,0.1-1,0.4c-0.4,0.3-0.7,1.4-0.8,3.2c-0.2,2.5,0.4,3.1,1,3.1C561.3,42.3,562.2,41.2,562.6,38.5z"/>
		<path fill="#94B33B" d="M567.7,44.1l0.6-7.6l-1.3-0.2l0-0.5l3.3-1.3h0.7l-0.2,3.2c0.7-2.3,2-3.2,3.1-3.2l0.1,2.4l-0.4,0.4
			c-0.3-0.2-0.6-0.3-1-0.3c-1.2,0-1.8,0.8-2,3.8l-0.2,2.8l-1.9,0.4H567.7z"/>
	</g>
	<path fill="#94B33B" d="M592.9,44v-9.7h-1.6v4.9c0,1.9-1.3,3.2-3.2,3.2c-1.9,0-3.2-1.3-3.2-3.2v-4.9h-1.6v4.9c0,3,1.8,4.9,4.9,4.9
		H592.9z M594.5,34.3V44h1.6v-4.9c0-1.9,1.3-3.2,3.2-3.2c1.9,0,3.2,1.3,3.2,3.2V44h1.6v-4.9c0-3-1.8-4.9-4.9-4.9H594.5z M578.3,38.9
		c0-8.5,6.9-15.3,15.3-15.3c8.5,0,15.3,6.9,15.3,15.3c0,8.5-6.9,15.3-15.3,15.3C585.2,54.3,578.3,47.4,578.3,38.9"/>
</g>
<g>
	<path fill="#64605F" d="M539.7,49.5c-0.7-0.3-1-0.6-1-1.2c0-0.8,0.7-1.4,1.6-1.4c0.5,0,0.9,0.1,1.1,0.2l-0.1,0.5
		c-0.5-0.1-0.9-0.2-1.3-0.2c-0.5,0-0.8,0.4-0.8,0.8c0,0.4,0.1,0.7,0.7,1l0.4,0.2c0.6,0.3,1,0.7,1,1.2c0,1-0.8,1.6-1.9,1.6
		c-0.4,0-0.7,0-1-0.2l0.1-0.5c0.4,0.1,0.9,0.2,1.3,0.2c0.6,0,1-0.4,1-0.9c0-0.4-0.1-0.7-0.7-1L539.7,49.5z"/>
	<path fill="#64605F" d="M542,50.6c0-1.5,0.7-2.4,1.5-2.4c0.5,0,0.8,0.4,0.8,0.8c0,0.8-1,1.2-1.8,1.3c0,0.1,0,0.2,0,0.3
		c0,0.8,0.3,1.1,0.6,1.1c0.4,0,0.7-0.2,1-0.5l0.2,0.3c-0.3,0.3-0.8,0.7-1.3,0.7C542.4,52,542,51.5,542,50.6z M542.5,49.9
		c0.8,0,1.3-0.4,1.3-0.9c0-0.3-0.2-0.5-0.5-0.5C543,48.5,542.6,48.9,542.5,49.9z"/>
	<path fill="#64605F" d="M547,50.8c-0.4,0.7-0.8,1.2-1.3,1.2c-0.4,0-0.9-0.3-0.9-1.5c0-1.3,0.8-2.3,1.5-2.3c0.3,0,0.5,0,0.7,0.1
		l0.1-1.8l0.5-0.1l-0.4,5.6L547,52L547,50.8z M547.1,49.3L547.1,49.3l0-0.6c-0.2-0.1-0.6-0.2-0.8-0.2c-0.5,0-0.9,0.6-0.9,1.9
		c0,0.8,0.2,1.1,0.5,1.1C546.2,51.6,547,50.9,547.1,49.3z"/>
	<path fill="#64605F" d="M548.5,50.6c0-1.5,0.7-2.4,1.5-2.4c0.5,0,0.8,0.4,0.8,0.8c0,0.8-1,1.2-1.8,1.3c0,0.1,0,0.2,0,0.3
		c0,0.8,0.3,1.1,0.6,1.1c0.4,0,0.7-0.2,1-0.5l0.2,0.3c-0.3,0.3-0.8,0.7-1.3,0.7C548.9,52,548.5,51.5,548.5,50.6z M549,49.9
		c0.8,0,1.3-0.4,1.3-0.9c0-0.3-0.2-0.5-0.5-0.5C549.6,48.5,549.2,48.9,549,49.9z"/>
	<path fill="#64605F" d="M553.8,46.9h1.2c0.9,0,1.4,0.4,1.4,1.1c0,0.6-0.4,1-0.8,1.3c0.4,0.1,1,0.3,1,1.1c0,1-0.9,1.5-2,1.5h-1.1
		L553.8,46.9z M554.1,49.6l-0.1,2c0.3,0,0.8,0,0.8,0c0.8,0,1.2-0.4,1.2-1c0-0.6-0.4-1-1.2-1C554.8,49.6,554.4,49.6,554.1,49.6z
		 M554.3,47.3l-0.1,1.9h0.6c0.6,0,1.1-0.3,1.1-0.9c0-0.6-0.3-0.9-1.1-0.9H554.3z"/>
	<path fill="#64605F" d="M558.4,52c-0.7,0-1.2-0.5-1.2-1.5c0-1.1,0.5-2.3,1.7-2.3c0.7,0,1.2,0.5,1.2,1.5
		C560.1,50.8,559.6,52,558.4,52z M559.6,49.8c0-0.7-0.3-1.2-0.8-1.2c-0.8,0-1,1.2-1,1.9c0,0.8,0.3,1.2,0.8,1.2
		C559.4,51.7,559.6,50.4,559.6,49.8z"/>
	<path fill="#64605F" d="M561.6,53.4c-0.7,0-1.2-0.3-1.2-0.7c0-0.3,0.2-0.5,0.6-0.8l0.5-0.4c-0.4-0.2-0.4-0.3-0.5-0.5
		c0-0.3,0.2-0.4,0.5-0.6c-0.4-0.1-0.7-0.4-0.7-0.9c0-0.7,0.5-1.3,1.3-1.3c0.2,0,0.4,0,0.5,0.1l0.5-0.8l0.3,0.3l-0.1,0.1l-0.6,0.4
		c0.2,0.2,0.3,0.4,0.3,0.7c0,0.7-0.5,1.3-1.3,1.3c-0.3,0.2-0.4,0.3-0.4,0.4c0,0.2,0.4,0.3,0.9,0.6c0.5,0.3,0.8,0.5,0.8,0.9
		C563.3,52.9,562.4,53.4,561.6,53.4z M562.8,52.5c0-0.3-0.3-0.5-0.9-0.8c0,0-0.1,0-0.1-0.1l-0.4,0.3c-0.3,0.2-0.5,0.4-0.5,0.7
		s0.3,0.5,0.9,0.5C562.3,53.1,562.8,52.8,562.8,52.5z M562.7,49.3c0-0.5-0.4-0.7-0.7-0.7c-0.4,0-0.6,0.2-0.6,0.8
		c0,0.5,0.3,0.8,0.7,0.8C562.4,50.1,562.7,49.9,562.7,49.3z"/>
	<path fill="#64605F" d="M565.1,52c-0.7,0-1.2-0.5-1.2-1.5c0-1.1,0.5-2.3,1.7-2.3c0.7,0,1.2,0.5,1.2,1.5
		C566.8,50.8,566.2,52,565.1,52z M566.2,49.8c0-0.7-0.3-1.2-0.8-1.2c-0.8,0-1,1.2-1,1.9c0,0.8,0.3,1.2,0.8,1.2
		C566.1,51.7,566.2,50.4,566.2,49.8z"/>
	<path fill="#64605F" d="M568.3,52c-0.3,0-0.6-0.3-0.6-0.6c0-0.1,0-0.1,0.3-2.7h-0.6l0-0.3l0.6-0.1c0-0.2,0-0.5,0.1-0.7l0.5-0.1
		c0,0.3-0.1,0.6-0.1,0.8h1.2l-0.1,0.4h-1.1c-0.1,1.3-0.3,2.1-0.3,2.5c0,0.3,0.2,0.4,0.4,0.4c0.3,0,0.5-0.2,0.8-0.4l0.1,0.3
		C569.1,51.8,568.7,52,568.3,52z"/>
	<path fill="#64605F" d="M572.1,51l0-0.1c-0.3,0.7-0.8,1.1-1.2,1.1c-0.5,0-0.8-0.4-0.8-1.4c0-1.2,0.7-2.4,1.7-2.4
		c0.3,0,0.7,0.1,0.9,0.2l-0.2,3.5l-0.4,0.1L572.1,51z M572.2,49.8l0.1-1.1c-0.2-0.1-0.5-0.1-0.7-0.1c-0.5,0-1,0.7-1,1.9
		c0,0.6,0.2,1.1,0.5,1.1C571.4,51.6,572,51.1,572.2,49.8z M572.5,46.6l0.6,0.1l-1.3,1h-0.4L572.5,46.6z"/>
</g>
</svg>
